HIERARCHY
ROOT Root
{
  OFFSET 0.0 0.0 0.0
  CHANNELS 6 Xposition Yposition Zposition Zrotation Yrotation Xrotation
  JOINT Hips
  {
    OFFSET 0.0 100.0 0.0
    CHANNELS 6 Xposition Yposition Zposition Zrotation Yrotation Xrotation
    JOINT Spine1
    {
      OFFSET -0.013727 5.003763 -0.053727
      CHANNELS 3 Zrotation Yrotation Xrotation
      JOINT Spine2
      {
        OFFSET -0.0 7.125301 -0.029825
        CHANNELS 3 Zrotation Yrotation Xrotation
        JOINT Chest
        {
          OFFSET -1e-06 7.550063 -0.815971
          CHANNELS 3 Zrotation Yrotation Xrotation
          JOINT Neck1
          {
            OFFSET -0.181677 26.311295 -0.553348
            CHANNELS 3 Zrotation Yrotation Xrotation
            JOINT Neck2
            {
              OFFSET -3e-06 7.709397 2.302585
              CHANNELS 3 Zrotation Yrotation Xrotation
              JOINT Head
              {
                OFFSET -5e-06 6.128916 1.953709
                CHANNELS 3 Zrotation Yrotation Xrotation
                JOINT HeadEnd
                {
                  OFFSET 0.003598 16.065403 -1.835379
                  CHANNELS 3 Zrotation Yrotation Xrotation
                }
                JOINT Jaw
                {
                  OFFSET 0.002637 0.475592 3.094941
                  CHANNELS 3 Zrotation Yrotation Xrotation
                }
                JOINT LeftEye
                {
                  OFFSET 3.206381 5.380205 7.586883
                  CHANNELS 3 Zrotation Yrotation Xrotation
                }
                JOINT RightEye
                {
                  OFFSET -3.22244 5.361869 7.558234
                  CHANNELS 3 Zrotation Yrotation Xrotation
                }
              }
            }
          }
          JOINT LeftShoulder
          {
            OFFSET 1.621652 23.237164 5.113413
            CHANNELS 3 Zrotation Yrotation Xrotation
            JOINT LeftArm
            {
              OFFSET 14.919846 2e-06 -5.502326
              CHANNELS 3 Zrotation Yrotation Xrotation
              JOINT LeftForeArm
              {
                OFFSET 28.739307 0.0 -0.002588
                CHANNELS 3 Zrotation Yrotation Xrotation
                JOINT LeftHand
                {
                  OFFSET 27.093981 -1e-06 0.002609
                  CHANNELS 3 Zrotation Yrotation Xrotation
                  JOINT LeftHandThumb1
                  {
                    OFFSET 2.276482 -1.392045 3.191413
                    CHANNELS 3 Zrotation Yrotation Xrotation
                    JOINT LeftHandThumb2
                    {
                      OFFSET 4.012836 -1.828127 1.641654
                      CHANNELS 3 Zrotation Yrotation Xrotation
                      JOINT LeftHandThumb3
                      {
                        OFFSET 2.798515 0.0 -3e-06
                        CHANNELS 3 Zrotation Yrotation Xrotation
                        JOINT LeftHandThumbEnd
                        {
                          OFFSET 3.180793 -4e-06 4e-06
                          CHANNELS 3 Zrotation Yrotation Xrotation
                        }
                      }
                    }
                  }
                  JOINT LeftHandIndex1
                  {
                    OFFSET 3.247555 -0.531998 2.296169
                    CHANNELS 3 Zrotation Yrotation Xrotation
                    JOINT LeftHandIndex2
                    {
                      OFFSET 6.364578 0.01206 0.1786
                      CHANNELS 3 Zrotation Yrotation Xrotation
                      JOINT LeftHandIndex3
                      {
                        OFFSET 3.662364 0.0 0.0
                        CHANNELS 3 Zrotation Yrotation Xrotation
                        JOINT LeftHandIndex4
                        {
                          OFFSET 2.329242 4e-06 4e-06
                          CHANNELS 3 Zrotation Yrotation Xrotation
                          JOINT LeftHandIndexEnd
                          {
                            OFFSET 2.759615 -0.180537 -0.113024
                            CHANNELS 3 Zrotation Yrotation Xrotation
                          }
                        }
                      }
                    }
                  }
                  JOINT LeftHandMiddle1
                  {
                    OFFSET 3.163495 0.240981 1.000332
                    CHANNELS 3 Zrotation Yrotation Xrotation
                    JOINT LeftHandMiddle2
                    {
                      OFFSET 6.19078 -0.259278 -1.002548
                      CHANNELS 3 Zrotation Yrotation Xrotation
                      JOINT LeftHandMiddle3
                      {
                        OFFSET 4.35652 -4e-06 -1e-06
                        CHANNELS 3 Zrotation Yrotation Xrotation
                        JOINT LeftHandMiddle4
                        {
                          OFFSET 2.996877 -8e-06 0.0
                          CHANNELS 3 Zrotation Yrotation Xrotation
                          JOINT LeftHandMiddleEnd
                          {
                            OFFSET 2.304287 -0.294569 -0.031741
                            CHANNELS 3 Zrotation Yrotation Xrotation
                          }
                        }
                      }
                    }
                  }
                  JOINT LeftHandRing1
                  {
                    OFFSET 2.882643 -0.053652 -0.322543
                    CHANNELS 3 Zrotation Yrotation Xrotation
                    JOINT LeftHandRing2
                    {
                      OFFSET 5.854541 -0.486202 -1.373841
                      CHANNELS 3 Zrotation Yrotation Xrotation
                      JOINT LeftHandRing3
                      {
                        OFFSET 4.350578 0.0 3e-06
                        CHANNELS 3 Zrotation Yrotation Xrotation
                        JOINT LeftHandRing4
                        {
                          OFFSET 2.651321 7e-06 2e-06
                          CHANNELS 3 Zrotation Yrotation Xrotation
                          JOINT LeftHandRingEnd
                          {
                            OFFSET 1.936105 0.077687 -7.1e-05
                            CHANNELS 3 Zrotation Yrotation Xrotation
                          }
                        }
                      }
                    }
                  }
                  JOINT LeftHandPinky1
                  {
                    OFFSET 2.8655 -0.310005 -1.600378
                    CHANNELS 3 Zrotation Yrotation Xrotation
                    JOINT LeftHandPinky2
                    {
                      OFFSET 5.087849 -1.331141 -1.77123
                      CHANNELS 3 Zrotation Yrotation Xrotation
                      JOINT LeftHandPinky3
                      {
                        OFFSET 3.070974 4e-06 0.0
                        CHANNELS 3 Zrotation Yrotation Xrotation
                        JOINT LeftHandPinky4
                        {
                          OFFSET 1.549672 0.0 1e-06
                          CHANNELS 3 Zrotation Yrotation Xrotation
                          JOINT LeftHandPinkyEnd
                          {
                            OFFSET 1.944893 -0.157802 0.057219
                            CHANNELS 3 Zrotation Yrotation Xrotation
                          }
                        }
                      }
                    }
                  }
                }
              }
            }
          }
          JOINT RightShoulder
          {
            OFFSET -1.380118 23.180309 5.214158
            CHANNELS 3 Zrotation Yrotation Xrotation
            JOINT RightArm
            {
              OFFSET -15.037196 1.2e-05 -5.545604
              CHANNELS 3 Zrotation Yrotation Xrotation
              JOINT RightForeArm
              {
                OFFSET -28.736639 2e-06 -0.002597
                CHANNELS 3 Zrotation Yrotation Xrotation
                JOINT RightHand
                {
                  OFFSET -27.133619 -0.0 0.002613
                  CHANNELS 3 Zrotation Yrotation Xrotation
                  JOINT RightHandThumb1
                  {
                    OFFSET -2.274032 -1.383988 3.163127
                    CHANNELS 3 Zrotation Yrotation Xrotation
                    JOINT RightHandThumb2
                    {
                      OFFSET -4.011429 -1.827466 1.640914
                      CHANNELS 3 Zrotation Yrotation Xrotation
                      JOINT RightHandThumb3
                      {
                        OFFSET -2.794935 -4e-06 -3e-06
                        CHANNELS 3 Zrotation Yrotation Xrotation
                        JOINT RightHandThumbEnd
                        {
                          OFFSET -3.183852 4e-06 1e-06
                          CHANNELS 3 Zrotation Yrotation Xrotation
                        }
                      }
                    }
                  }
                  JOINT RightHandIndex1
                  {
                    OFFSET -3.253266 -0.520057 2.282866
                    CHANNELS 3 Zrotation Yrotation Xrotation
                    JOINT RightHandIndex2
                    {
                      OFFSET -6.341917 0.012471 0.178266
                      CHANNELS 3 Zrotation Yrotation Xrotation
                      JOINT RightHandIndex3
                      {
                        OFFSET -3.654871 -8e-06 -0.0
                        CHANNELS 3 Zrotation Yrotation Xrotation
                        JOINT RightHandIndex4
                        {
                          OFFSET -2.327586 0.0 1e-06
                          CHANNELS 3 Zrotation Yrotation Xrotation
                          JOINT RightHandIndexEnd
                          {
                            OFFSET -2.76179 -0.180656 -0.113078
                            CHANNELS 3 Zrotation Yrotation Xrotation
                          }
                        }
                      }
                    }
                  }
                  JOINT RightHandMiddle1
                  {
                    OFFSET -3.168106 0.246593 1.00103
                    CHANNELS 3 Zrotation Yrotation Xrotation
                    JOINT RightHandMiddle2
                    {
                      OFFSET -6.180828 -0.258836 -1.000895
                      CHANNELS 3 Zrotation Yrotation Xrotation
                      JOINT RightHandMiddle3
                      {
                        OFFSET -4.348901 0.0 -0.0
                        CHANNELS 3 Zrotation Yrotation Xrotation
                        JOINT RightHandMiddle4
                        {
                          OFFSET -3.00024 -4e-06 -2e-06
                          CHANNELS 3 Zrotation Yrotation Xrotation
                          JOINT RightHandMiddleEnd
                          {
                            OFFSET -2.30252 -0.29437 -0.031706
                            CHANNELS 3 Zrotation Yrotation Xrotation
                          }
                        }
                      }
                    }
                  }
                  JOINT RightHandRing1
                  {
                    OFFSET -2.88569 -0.067952 -0.308858
                    CHANNELS 3 Zrotation Yrotation Xrotation
                    JOINT RightHandRing2
                    {
                      OFFSET -5.854198 -0.48613 -1.373731
                      CHANNELS 3 Zrotation Yrotation Xrotation
                      JOINT RightHandRing3
                      {
                        OFFSET -4.33881 -4e-06 -0.0
                        CHANNELS 3 Zrotation Yrotation Xrotation
                        JOINT RightHandRing4
                        {
                          OFFSET -2.654903 -4e-06 4e-06
                          CHANNELS 3 Zrotation Yrotation Xrotation
                          JOINT RightHandRingEnd
                          {
                            OFFSET -1.933568 0.077527 -5.2e-05
                            CHANNELS 3 Zrotation Yrotation Xrotation
                          }
                        }
                      }
                    }
                  }
                  JOINT RightHandPinky1
                  {
                    OFFSET -2.866425 -0.342796 -1.584145
                    CHANNELS 3 Zrotation Yrotation Xrotation
                    JOINT RightHandPinky2
                    {
                      OFFSET -5.091371 -1.332055 -1.772385
                      CHANNELS 3 Zrotation Yrotation Xrotation
                      JOINT RightHandPinky3
                      {
                        OFFSET -3.062664 -4e-06 1e-06
                        CHANNELS 3 Zrotation Yrotation Xrotation
                        JOINT RightHandPinky4
                        {
                          OFFSET -1.546529 4e-06 -2e-06
                          CHANNELS 3 Zrotation Yrotation Xrotation
                          JOINT RightHandPinkyEnd
                          {
                            OFFSET -1.945119 -0.157718 0.057211
                            CHANNELS 3 Zrotation Yrotation Xrotation
                          }
                        }
                      }
                    }
                  }
                }
              }
            }
          }
        }
      }
    }
    JOINT LeftLeg
    {
      OFFSET 10.043214 -8.434526 2.595655
      CHANNELS 3 Zrotation Yrotation Xrotation
      JOINT LeftShin
      {
        OFFSET -1e-06 -43.221752 -0.802913
        CHANNELS 3 Zrotation Yrotation Xrotation
        JOINT LeftFoot
        {
          OFFSET 1e-06 -42.155094 -3.481523
          CHANNELS 3 Zrotation Yrotation Xrotation
          JOINT LeftToeBase
          {
            OFFSET 0.0 -5.059472 13.231529
            CHANNELS 3 Zrotation Yrotation Xrotation
            JOINT LeftToeEnd
            {
              OFFSET -0.009607 -1.647619 6.513017
              CHANNELS 3 Zrotation Yrotation Xrotation
            }
          }
        }
      }
    }
    JOINT RightLeg
    {
      OFFSET -10.047278 -8.29526 2.620317
      CHANNELS 3 Zrotation Yrotation Xrotation
      JOINT RightShin
      {
        OFFSET 1e-06 -43.362206 -0.805556
        CHANNELS 3 Zrotation Yrotation Xrotation
        JOINT RightFoot
        {
          OFFSET 2e-06 -42.117393 -3.478398
          CHANNELS 3 Zrotation Yrotation Xrotation
          JOINT RightToeBase
          {
            OFFSET -0.0 -5.079609 13.284196
            CHANNELS 3 Zrotation Yrotation Xrotation
            JOINT RightToeEnd
            {
              OFFSET 0.009532 -1.634378 6.460591
              CHANNELS 3 Zrotation Yrotation Xrotation
            }
          }
        }
      }
    }
  }
}
MOTION
Frames: 4
Frame Time: 0.03333333333333333
0.0 0.0 0.0 0.0 -0.0 0.0 -0.304406 100.303375 5.210325 1.140839 -0.277205 0.672618 -0.635998 -0.345163 -3.938106 -0.801306 -0.286213 -6.487214 -1.089363 -2.290749 12.635819 2.100981 1.942622 5.219405 -1.325933 -2.042208 -3.609437 -0.361654 -3.567407 -5.261608 7.7e-05 -2.3e-05 6e-06 0.015742 -0.020713 0.036323 0.723829 -3.740181 -10.549461 -0.695308 3.703714 -10.585341 -10.14452 -3.481821 15.533351 -64.65271 -13.368672 28.442417 0.141139 -26.926056 0.004639 5.06367 2.32539 -4.030398 -5.882081 9.861259 0.702578 -10.936755 -0.360519 7.156244 2e-05 8.774837 -1e-06 -16.160181 18.192484 6.092999 -1.844039 2.4985 -2.507279 -10.163609 4.678926 4.621084 -20.976067 -6.6e-05 -1e-05 -21.226358 2.451608 -3.594007 1e-06 -3e-06 1e-06 -1.362682 2.240801 -0.746326 -21.334963 0.58486 3.0083 -13.821247 -4.3e-05 -6e-06 -23.887327 -0.24919 -0.839479 -60.685535 2.701346 -1.028238 -0.294021 1.679689 0.833258 -14.218244 0.093184 1.300557 -34.212151 -0.287663 0.967177 -20.033291 0.964481 1.21288 1e-06 0.0 1e-06 -3.440399 0.78822 0.501636 -15.928213 -3.167334 2.999701 -6.338836 -1.9e-05 -4e-06 -18.123528 3.648094 -4.905699 -3e-06 -0.0 -1e-06 22.76441 6.871645 18.008907 55.560978 15.568588 23.472235 0.514795 27.171188 0.28365 -8.846466 -7.127964 -7.186221 2.24355 -5.25493 -3.18002 14.282809 -0.826702 6.952602 -7e-06 -12.690671 1e-06 16.03293 -17.591125 2.631824 1.665673 -1.955924 -2.878316 4.727822 -4.170614 4.993901 11.020599 7e-06 -3e-06 12.109205 -3.735749 -2.866848 -0.0 -0.0 -1e-06 1.291999 -1.928589 -1.498103 14.800181 0.567517 3.865596 14.242662 -1.341736 -6.6607 19.632219 0.143944 -0.648292 49.388687 -0.440001 -6.274576 0.353048 -1.511208 -0.031953 20.22286 3.684396 2.316633 18.787399 1.4e-05 -7e-06 10.7517 -0.479864 1.397925 -1e-06 1e-06 1e-06 3.273871 0.305871 -0.580142 21.486837 11.830515 2.26616 8.162974 3e-06 -9e-06 18.399296 -3.798972 -4.940657 1e-06 -0.0 -1e-06 -0.125301 0.782629 -6.414913 0.015677 0.020491 10.897785 -1.590706 -4.286027 -4.424757 1.680053 -1.847766 -1.001502 0.0 0.0 2e-06 -1.106814 -6.834628 -8.488954 -0.056016 -0.072464 14.305742 2.395188 -5.28187 -7.232325 -1.416105 1.04065 -1.378828 0.0 -0.0 -4e-06 
0.0 0.0 0.0 0.0 -0.0 0.0 -0.312283 100.299538 5.348016 1.135306 -0.270709 0.688542 -0.648452 -0.358243 -3.945347 -0.791364 -0.253968 -6.465209 -1.048827 -2.360011 12.606159 2.106397 1.94347 5.214481 -1.330417 -2.078151 -3.579958 -0.382205 -3.588129 -5.272548 7.7e-05 -2.2e-05 6e-06 0.011608 0.005461 0.035453 0.7232 -3.716932 -10.556042 -0.702878 3.731964 -10.591642 -10.064161 -3.549051 15.494918 -64.725441 -13.355708 28.31481 0.015319 -26.899883 0.00614 5.026083 2.275391 -3.92602 -5.882094 9.861342 0.702506 -10.936877 -0.360622 7.156184 3e-06 8.774796 -1e-06 -16.161659 18.183123 6.069514 -1.844025 2.498502 -2.507273 -10.163578 4.678924 4.62111 -20.975996 -8e-06 1.1e-05 -21.226294 2.451672 -3.59398 -2e-06 -5e-06 -0.0 -1.362674 2.24077 -0.746317 -21.334877 0.58493 3.008323 -13.821198 -4e-06 9e-06 -23.887201 -0.249089 -0.839462 -60.682747 2.688983 -0.989634 -0.294017 1.679652 0.83326 -14.218184 0.093249 1.300581 -34.212017 -0.28756 0.96719 -20.033236 0.964545 1.212861 2e-06 1e-06 -0.0 -3.440363 0.788184 0.501669 -15.928172 -3.167253 2.999697 -6.33882 -2e-06 4e-06 -18.123465 3.64816 -4.905662 -3e-06 1e-06 -1e-06 22.70027 6.912585 18.013781 55.57621 15.660406 23.364912 0.555105 27.123508 0.284893 -8.822401 -6.982062 -7.256653 2.243532 -5.255051 -3.180207 14.282887 -0.826622 6.952499 1e-06 -12.690625 -0.0 16.077757 -17.6192 2.601991 1.665665 -1.955922 -2.878296 4.7278 -4.170593 4.993917 11.020535 -2e-06 -0.0 12.1091 -3.735736 -2.866813 -2e-06 -1e-06 0.0 1.291988 -1.928558 -1.498081 14.80012 0.567482 3.865604 14.242579 -1.341744 -6.660662 19.632038 0.143935 -0.648266 49.565712 -0.443518 -6.278433 0.353032 -1.511163 -0.031933 20.222771 3.684335 2.316631 18.787285 -2e-06 -6e-06 10.751646 -0.47987 1.397915 3e-06 -0.0 2e-06 3.273808 0.305925 -0.5801 21.486786 11.83042 2.266141 8.16293 -1e-06 -2e-06 18.39916 -3.798988 -4.940619 4e-06 1e-06 2e-06 -0.150684 0.774322 -6.404243 -0.002146 -0.014234 10.935349 -1.663096 -4.221091 -4.550755 1.68309 -1.887038 -1.021637 -0.0 -1e-06 2e-06 -1.127806 -6.687122 -8.527644 -0.04937 -0.05643 14.426989 2.420886 -5.441035 -7.344548 -1.420249 1.026143 -1.425114 -0.0 -1e-06 -0.0 
0.0 0.0 0.0 0.0 -0.0 0.0 -0.285849 100.281715 5.424791 1.151575 -0.295937 0.714954 -0.671523 -0.374502 -3.956012 -0.788188 -0.244298 -6.467474 -0.996824 -2.383385 12.622155 2.117258 1.950819 5.210809 -1.320562 -2.147757 -3.597946 -0.412613 -3.596861 -5.246737 7.7e-05 -2.3e-05 6e-06 0.01087 0.011813 0.034156 0.722106 -3.710893 -10.572166 -0.703189 3.737855 -10.601427 -9.97295 -3.625772 15.441335 -64.789383 -13.29713 28.252855 -0.069109 -26.939711 0.004886 4.981283 2.300239 -4.013797 -5.882044 9.861447 0.702197 -10.936975 -0.36076 7.156007 -1.2e-05 8.774756 -1.4e-05 -16.17618 18.217335 6.049383 -1.844019 2.4985 -2.507252 -10.163528 4.678916 4.621134 -20.975872 2e-05 3e-06 -21.226141 2.451684 -3.593974 2e-06 -4e-06 -1e-06 -1.362668 2.240736 -0.746302 -21.334766 0.584987 3.008339 -13.821115 9e-06 4e-06 -23.886982 -0.249064 -0.839465 -60.691628 2.7167 -1.031314 -0.294012 1.679605 0.833275 -14.218122 0.093315 1.300608 -34.211784 -0.287529 0.967155 -20.033106 0.964541 1.212826 1e-06 3e-06 1e-06 -3.440309 0.788125 0.501719 -15.928144 -3.167164 2.999698 -6.338781 2e-06 0.0 -18.123316 3.648184 -4.90564 -3e-06 1e-06 -6e-06 22.675983 6.954904 17.997396 55.543694 15.728412 23.276367 0.575309 27.102917 0.265789 -8.819501 -6.907627 -7.253984 2.243516 -5.255221 -3.18046 14.282953 -0.826434 6.952343 -4e-06 -12.690505 -6e-06 16.111795 -17.618721 2.590171 1.665656 -1.955923 -2.878272 4.727765 -4.170547 4.993937 11.020455 6e-06 1e-06 12.108968 -3.735659 -2.866753 0.0 -1e-06 1e-06 1.291966 -1.928485 -1.498063 14.800045 0.567401 3.865613 14.242476 -1.341726 -6.660612 19.631823 0.143952 -0.64822 49.639717 -0.4585 -6.291941 0.353005 -1.511065 -0.031916 20.222681 3.684191 2.316632 18.787148 9e-06 9e-06 10.751581 -0.47986 1.397899 0.0 1e-06 4e-06 3.273714 0.306065 -0.580048 21.486752 11.830158 2.266106 8.162874 4e-06 -1e-06 18.398956 -3.79895 -4.940526 4e-06 -0.0 -2e-06 -0.194098 0.727812 -6.437334 -0.011277 -0.034782 11.028479 -1.67986 -4.107549 -4.671191 1.685741 -1.905444 -0.976075 0.0 0.0 1e-06 -1.165259 -6.5808 -8.611996 -0.045436 -0.053556 14.61627 2.459208 -5.56453 -7.466083 -1.421376 1.016546 -1.405222 1e-06 -1e-06 -0.0 
0.0 0.0 0.0 0.0 -0.0 0.0 -0.25266 100.260437 5.499208 1.169086 -0.318051 0.737777 -0.699862 -0.388884 -3.952472 -0.785541 -0.245503 -6.480138 -0.951631 -2.39665 12.647876 2.128249 1.951114 5.214504 -1.310608 -2.22035 -3.624629 -0.430521 -3.603515 -5.252081 7.7e-05 -2.2e-05 6e-06 0.010705 0.00802 0.032358 0.720988 -3.714324 -10.589479 -0.702353 3.733115 -10.611759 -9.896364 -3.68562 15.420505 -64.825188 -13.276745 28.314302 -0.0812 -26.975922 0.006865 4.974314 2.325471 -4.074795 -5.882057 9.861293 0.702685 -10.936872 -0.360618 7.156272 -2.5e-05 8.774827 -3e-06 -16.176579 18.2199 6.041254 -1.844034 2.498511 -2.507276 -10.163622 4.678978 4.621086 -20.976091 5.6e-05 -2.7e-05 -21.226465 2.451758 -3.594108 0.0 -5e-06 1e-06 -1.36271 2.240808 -0.746338 -21.3349 0.584957 3.008305 -13.821253 3.5e-05 -1.7e-05 -23.887388 -0.249028 -0.839595 -60.712795 2.737443 -1.067916 -0.294062 1.679698 0.833242 -14.218174 0.093238 1.30058 -34.212177 -0.287481 0.967111 -20.033331 0.96457 1.212811 -2e-06 -1e-06 -2e-06 -3.440441 0.788276 0.501637 -15.928112 -3.167308 2.999723 -6.338847 1.7e-05 -4e-06 -18.123627 3.648236 -4.905767 -3e-06 -1e-06 -4e-06 22.679861 6.993114 18.003531 55.513649 15.79692 23.206953 0.547372 27.092873 0.241018 -8.798243 -6.891167 -7.253675 2.243487 -5.255136 -3.180285 14.283022 -0.826475 6.952413 2.8e-05 -12.690543 -5e-06 16.126785 -17.605791 2.589721 1.665651 -1.955926 -2.878286 4.727764 -4.170577 4.993933 11.020429 -2e-05 -1e-06 12.108935 -3.735723 -2.866787 1e-06 -1e-06 -2e-06 1.291976 -1.928527 -1.498075 14.799999 0.567414 3.865615 14.242446 -1.341765 -6.660635 19.631716 0.143902 -0.648262 49.63163 -0.481825 -6.292156 0.353019 -1.511119 -0.031927 20.222622 3.684221 2.316637 18.787113 -3.7e-05 2e-06 10.751556 -0.479887 1.397902 -1e-06 2e-06 1e-06 3.273725 0.305973 -0.580066 21.486685 11.83025 2.266135 8.162857 -1.6e-05 6e-06 18.398899 -3.799028 -4.940551 3e-06 -0.0 -3e-06 -0.237346 0.673511 -6.46573 -0.013472 -0.047345 11.11161 -1.651693 -3.993476 -4.752857 1.687078 -1.913117 -0.945055 0.0 0.0 2e-06 -1.206859 -6.514826 -8.654848 -0.044593 -0.064774 14.738669 2.493259 -5.633839 -7.571607 -1.421119 1.005155 -1.399914 -0.0 -1e-06 -4e-06 
